<svg xmlns="http://www.w3.org/2000/svg" width="818" height="393"><switch><g><path fill="#007F41" d="M6.667 234s28 48 122 94.667c0 0 66 29.333 138.667 39.333 0 0 94.667 14 128 10.667 0 0 86-2.667 152-18 0 0 144-25.333 201.333-23.333 0 0 34.054-1.856 54 .666 0 0 12.2.238-1.333-5.333 0 0-60.668-18.667-161.334-8 0 0-66 6.667-133.333 16.667 0 0-103.334 17.334-118.667 18 0 0-70.667 11.332-120.667.666 0 0-104.667-23.332-166-94.666 0 0-8.667-8.666-17.333-20 0 0-2.386-4.724-8.667-5.334 0 0-49.333-9.333-59.333-9.333 0 0-14-2.001-9.333 3.333z"/><g fill="#007F41"><path d="M38.831 60.462c0-18.236.589-32.941 0-46.473h21.766l3.823 12.413c10.96-14.144 25.59-15.354 48.826-15.354 34.707 0 60.589 29.12 60.589 72.062 0 51.179-31.471 76.473-65 76.473-18.824 0-35.295-8.235-43.826-22.352h-.588v77.354h-25.59V60.462zm25.59 37.943c0 3.824.293 7.352 1.177 10.589 4.705 17.94 20.294 30.294 38.825 30.294 27.353 0 43.237-22.354 43.237-55.003 0-28.236-15.001-52.648-42.355-52.648-17.647 0-34.414 10.354-39.118 29.766-.884 3.235-1.765 9.059-1.765 12.293v24.709zM189.831 58.403c0-16.766-.293-31.177-1.177-44.414h22.647l1.177 13.237h.884C220 11.5 232.252 14.374 250.069 13.048c2.64-.196 7.705.295 10.059.588v22.413c-2.647-.589-5.293-.589-8.824-.589-18.236 0-31.179 13.531-34.707 32.943-.588 3.528-.883 7.94-.883 12.059v75.885h-25.883V58.403zM399.636 83.993c0 52.649-36.766 75.589-70.884 75.589-38.236 0-68.238-28.235-68.238-73.238 0-47.354 31.471-75.296 70.59-75.296 40.883 0 68.532 29.708 68.532 72.945zm-112.65 1.47c0 31.178 17.647 54.707 42.94 54.707 24.709 0 43.238-23.236 43.238-55.295 0-24.118-12.06-54.415-42.649-54.415-30.294 0-43.529 28.237-43.529 55.003zM212.094 276.199c7.94 4.707 22.647 10 35.588 10 18.53 0 27.354-9.116 27.354-21.178 0-12.352-7.354-18.824-26.178-25.883-25.882-9.412-37.941-23.236-37.941-40.294 0-22.943 18.824-41.767 49.12-41.767 14.411 0 25.884 3.824 33.531 8.823v18.823c-5.589-3.527-20.884-8.528-34.119-8.528-15.294 0-23.529 8.824-23.529 19.413 0 11.766 8.235 17.059 26.764 24.412 24.413 9.117 37.356 21.471 37.356 42.648 0 25.294-19.709 42.942-52.943 42.942-15.589 0-25.001-4.117-35.002-10.001l-.001-19.41zM449.837 230.021c0 52.649-36.767 75.591-70.886 75.591-38.234 0-68.235-28.236-68.235-73.239 0-47.353 31.47-75.295 70.59-75.295 40.883 0 68.531 29.707 68.531 72.943zm-112.65 1.471c0 31.178 17.647 54.707 42.942 54.707 24.708 0 43.237-23.235 43.237-55.295 0-24.117-12.059-54.414-42.646-54.414-30.298 0-43.533 28.236-43.533 55.002zM451.982 287.376l64.12-83.827c6.47-7.939 12.354-14.705 18.824-22.352v-.588h-77.061v-20.59h108.238v16.177l-63.529 82.65c-6.179 7.94-11.768 15.294-18.238 22.353v.588h82.943v20.59H451.982v-15.001zM614.69 120.018c0 8.824-6.18 15.884-16.475 15.884-9.41 0-15.585-7.061-15.585-15.884s6.471-16.175 16.176-16.175c9.409-.001 15.884 7.057 15.884 16.175zm-28.825 182.359V160.02h25.881v142.357h-25.881zM738.346 268.259c0 12.353-.8 23.87 0 34.118H715.11l-.001-17.943h-.882c-7.941 11.178-23.235 21.179-43.531 21.179-28.825 0-43.528-20.295-43.528-40.884 0-34.413 30.587-53.237 85.588-52.942v-2.941c0-11.47-3.235-32.943-32.351-32.648-13.531 0-33.235 3.823-43.236 10.589l-.001-17.354c11.764-7.354 29.116-12.354 47.059-12.354 43.532 0 54.119 29.707 54.119 57.943v53.237zm-24.999-38.532c-28.238-.588-60.298 4.412-60.298 32.06 0 17.06 11.177 24.709 24.12 24.709 18.825 0 30.884-11.767 35-23.825.882-2.941 1.178-5.883 1.178-8.234v-24.71zM759.678 93.546h25.881v208.831h-25.881V93.546z"/></g></g></switch></svg>